<svg width="64" height="65" viewBox="0 0 64 65" fill="none" xmlns="http://www.w3.org/2000/svg">
<path d="M22 58.4541H42" stroke="#C6C6C6" stroke-width="3" stroke-linecap="round" stroke-linejoin="round"/>
<path d="M19.6752 42.2039C17.2942 40.3525 15.3658 37.9835 14.036 35.2764C12.7063 32.5692 12.0101 29.5949 12.0002 26.5789C11.9502 15.7289 20.6752 6.70386 31.5252 6.45386C35.7244 6.35432 39.8483 7.57937 43.3121 9.95528C46.7759 12.3312 49.4038 15.7373 50.823 19.6906C52.2422 23.644 52.3807 27.9438 51.2189 31.9802C50.0571 36.0167 47.6539 39.5849 44.3502 42.1789C43.6204 42.743 43.0293 43.4665 42.622 44.2941C42.2147 45.1217 42.002 46.0315 42.0002 46.9539V48.4539C42.0002 48.9843 41.7895 49.493 41.4144 49.8681C41.0394 50.2431 40.5306 50.4539 40.0002 50.4539H24.0002C23.4698 50.4539 22.9611 50.2431 22.586 49.8681C22.2109 49.493 22.0002 48.9843 22.0002 48.4539V46.9539C21.994 46.0384 21.7817 45.1361 21.3792 44.3138C20.9768 43.4915 20.3944 42.7704 19.6752 42.2039V42.2039Z" stroke="#C6C6C6" stroke-width="3" stroke-linecap="round" stroke-linejoin="round"/>
<path d="M34.0254 14.6543C36.4698 15.0687 38.7254 16.2316 40.4808 17.9825C42.2361 19.7333 43.4048 21.9859 43.8254 24.4293" stroke="#C6C6C6" stroke-width="3" stroke-linecap="round" stroke-linejoin="round"/>
</svg>
