<svg width="64" height="65" viewBox="0 0 64 65" fill="none" xmlns="http://www.w3.org/2000/svg">
<path d="M32 40.4541C37.5228 40.4541 42 35.9769 42 30.4541C42 24.9313 37.5228 20.4541 32 20.4541C26.4772 20.4541 22 24.9313 22 30.4541C22 35.9769 26.4772 40.4541 32 40.4541Z" stroke="#C6C6C6" stroke-width="3" stroke-miterlimit="10"/>
<path d="M15.9492 50.3037C17.454 47.3397 19.7501 44.8504 22.5831 43.1115C25.416 41.3726 28.6752 40.4521 31.9992 40.4521C35.3233 40.4521 38.5824 41.3726 41.4154 43.1115C44.2483 44.8504 46.5444 47.3397 48.0492 50.3037" stroke="#C6C6C6" stroke-width="3" stroke-linecap="round" stroke-linejoin="round"/>
<path d="M44 14.4541H56" stroke="#C6C6C6" stroke-width="3" stroke-linecap="round" stroke-linejoin="round"/>
<path d="M50 8.4541V20.4541" stroke="#C6C6C6" stroke-width="3" stroke-linecap="round" stroke-linejoin="round"/>
<path d="M55.7 28.6791C55.9022 29.9273 56.0025 31.1898 56 32.4541C56 37.2009 54.5924 41.8411 51.9553 45.7878C49.3181 49.7346 45.5698 52.8108 41.1844 54.6273C36.799 56.4438 31.9734 56.919 27.3178 55.993C22.6623 55.0669 18.3859 52.7812 15.0294 49.4247C11.673 46.0682 9.38721 41.7919 8.46116 37.1363C7.53512 32.4808 8.0104 27.6552 9.8269 23.2697C11.6434 18.8843 14.7195 15.136 18.6663 12.4989C22.6131 9.86172 27.2533 8.45415 32 8.45415C33.2644 8.45166 34.5269 8.552 35.775 8.75415" stroke="#C6C6C6" stroke-width="3" stroke-linecap="round" stroke-linejoin="round"/>
</svg>
